<?xml version="1.0" encoding="UTF-8"?>
<svg id="Layer_2" data-name="Layer 2" xmlns="http://www.w3.org/2000/svg" viewBox="0 0 456.45 481.78">
  <defs>
    <style>
      .cls-1 {
        fill: #a1a1aa;
      }
    </style>
  </defs>
  <g id="Layer_1-2" data-name="Layer 1">
    <path class="cls-1" d="m452.06,66.19C418.34,44.52,339.94,1.23,231.54.03,119.87-1.2,38.66,42.93,4.68,64.38c-2.77,1.75-4.46,4.79-4.46,8.06l-.22,182.9c0,.31.01.6.04.9,1.78,19.51,7.18,50.17,25.21,82.3,4.02,7.16,20.38,35.28,66.86,71.66,26.51,20.74,69.73,49.6,131.32,71.05,1.99.7,4.18.71,6.17.04,63.05-21.06,107.33-49.99,134.4-70.75,48.11-36.9,64.4-65.32,68.68-73.14,17.47-31.86,22.31-62.22,23.75-81.46.02-.25.02-.49.02-.74V74.23c0-3.25-1.65-6.28-4.39-8.04Zm-102.49,189.04c-3.1,23.3-11.8,40.39-11.8,40.4,0,0-.38.74-.78,1.49-3.23,6.06-12.63,21.61-36.3,41.28-14.35,11.93-37.68,28.46-70.77,40.72-2.22.83-4.66.81-6.88-.04-32.3-12.48-55.06-28.97-69.12-40.88-23.02-19.53-32.36-34.99-35.41-40.63-.36-.66-.61-1.16-.68-1.28-8.69-16.73-10.35-31.23-11.34-40.72-1.65-15.64-3.49-58.55-1.87-116.59.09-3.23,1.79-6.2,4.55-7.88,19.51-11.93,61.01-33.14,117.32-33.59,57.96-.46,100.75,21.33,120.41,33.27,2.74,1.67,4.47,4.6,4.59,7.81,2.25,58.09.15,101.09-1.92,116.64Z"/>
  </g>
</svg>