<?xml version="1.0" encoding="UTF-8"?>
<svg id="Layer_2" data-name="Layer 2" xmlns="http://www.w3.org/2000/svg" viewBox="0 0 456.46 482.31">
  <defs>
    <style>
      .cls-1 {
        fill: #fff;
      }
    </style>
  </defs>
  <g id="Layer_1-2" data-name="Layer 1">
    <path class="cls-1" d="m231.55.03C114.66-1.26,31.15,47.15.23,67.23c-.07,62.85-.15,125.71-.23,188.57,1.75,19.48,7.09,50.36,25.26,82.74,4.02,7.16,20.38,35.28,66.86,71.66,26.94,21.09,71.17,50.56,134.4,72.11,64.69-21.14,109.98-50.67,137.49-71.77,48.11-36.9,64.4-65.32,68.68-73.14,17.57-32.06,22.37-62.6,23.77-81.83V69.06C425.53,48.62,344.96,1.28,231.55.03Zm118.74,255.2c-3.1,23.3-11.8,40.39-11.8,40.4,0,0-.38.74-.78,1.49-3.23,6.06-12.63,21.61-36.3,41.28-14.85,12.34-39.29,29.61-74.21,41.97-34.14-12.61-58.01-29.84-72.55-42.17-23.03-19.53-32.37-34.99-35.42-40.63-.35-.66-.61-1.16-.67-1.28-8.7-16.73-10.36-31.23-11.35-40.72-1.69-16.09-3.6-61.08-1.72-121.71,17.14-11.03,60.74-35.86,121.72-36.35,62.74-.49,107.71,25.07,124.8,36,2.57,60.66.41,105.72-1.72,121.72Z"/>
  </g>
</svg>