<svg xmlns="http://www.w3.org/2000/svg" viewBox="0 0 64 64" role="img" aria-label="Koreshield">
  <rect width="64" height="64" rx="16" fill="#0f172a"/>
  <path d="M32 11.5 48 17.7v13.5c0 12.5-7.2 20.2-16 24.1-8.8-3.9-16-11.6-16-24.1V17.7l16-6.2Z" fill="#10b981"/>
  <path d="M32 17.7 42.4 21.8v9.6c0 7.7-4 13.1-10.4 16.5-6.4-3.4-10.4-8.8-10.4-16.5v-9.6L32 17.7Z" fill="#020617"/>
  <path d="M32 20.8 39.2 23.6v7.8c0 5.4-2.5 9.3-7.2 12.1-4.7-2.8-7.2-6.7-7.2-12.1v-7.8L32 20.8Z" fill="none" stroke="#ecfdf5" stroke-width="3" stroke-linejoin="round"/>
</svg>
