<svg xmlns="http://www.w3.org/2000/svg" width="1200" height="630" viewBox="0 0 1200 630" role="img" aria-labelledby="title desc">
  <title id="title">Koreshield AI Security Firewall</title>
  <desc id="desc">Secure AI before it acts with runtime protection for prompts, RAG, agents, providers, and audit evidence.</desc>
  <defs>
    <linearGradient id="background" x1="0" y1="0" x2="1" y2="1">
      <stop offset="0" stop-color="#07111f"/>
      <stop offset="0.55" stop-color="#0f172a"/>
      <stop offset="1" stop-color="#062a27"/>
    </linearGradient>
    <radialGradient id="glow" cx="78%" cy="24%" r="62%">
      <stop offset="0" stop-color="#10b981" stop-opacity="0.28"/>
      <stop offset="1" stop-color="#10b981" stop-opacity="0"/>
    </radialGradient>
    <pattern id="grid" width="48" height="48" patternUnits="userSpaceOnUse">
      <path d="M48 0H0V48" fill="none" stroke="#ffffff" stroke-opacity="0.035"/>
    </pattern>
  </defs>
  <rect width="1200" height="630" fill="url(#background)"/>
  <rect width="1200" height="630" fill="url(#glow)"/>
  <rect width="1200" height="630" fill="url(#grid)"/>
  <g transform="translate(82 78)">
    <rect width="72" height="72" rx="18" fill="#10b981" fill-opacity="0.12" stroke="#34d399" stroke-opacity="0.4"/>
    <path d="M36 12 56 20v16.8c0 15.2-9.2 24.8-20 29.5-10.8-4.7-20-14.3-20-29.5V20l20-8Z" fill="#f8fafc"/>
    <path d="M36 20 49 25v11.8c0 9.4-5.1 16-13 20-7.9-4-13-10.6-13-20V25l13-5Z" fill="#0f172a"/>
    <path d="M36 26 43.5 29v8c0 5.7-2.6 10-7.5 13-4.9-3-7.5-7.3-7.5-13v-8L36 26Z" fill="#34d399"/>
  </g>
  <text x="176" y="125" fill="#f8fafc" font-family="Arial, Helvetica, sans-serif" font-size="42" font-weight="700" letter-spacing="-1">Koreshield</text>
  <text x="84" y="262" fill="#f8fafc" font-family="Arial, Helvetica, sans-serif" font-size="66" font-weight="700" letter-spacing="-2">Secure AI before it acts.</text>
  <text x="86" y="322" fill="#a7f3d0" font-family="Arial, Helvetica, sans-serif" font-size="28" font-weight="600">The runtime security layer for production AI.</text>
  <text x="86" y="390" fill="#cbd5e1" font-family="Arial, Helvetica, sans-serif" font-size="24">Prompts · RAG · Agents · Providers · Audit evidence</text>
  <g transform="translate(86 468)">
    <rect width="312" height="64" rx="32" fill="#10b981"/>
    <text x="156" y="41" text-anchor="middle" fill="#04130f" font-family="Arial, Helvetica, sans-serif" font-size="24" font-weight="700">koreshield.ai</text>
  </g>
  <g transform="translate(866 174)" fill="none" stroke="#34d399">
    <circle cx="110" cy="110" r="104" stroke-opacity="0.18" stroke-width="2"/>
    <circle cx="110" cy="110" r="76" stroke-opacity="0.3" stroke-width="2"/>
    <circle cx="110" cy="110" r="48" stroke-opacity="0.5" stroke-width="2"/>
    <path d="M110 4V216M4 110H216" stroke-opacity="0.12"/>
    <path d="m110 54 45 17v37c0 34-21 55-45 66-24-11-45-32-45-66V71l45-17Z" fill="#10b981" fill-opacity="0.14" stroke-width="3"/>
    <path d="m90 110 14 14 28-33" stroke="#f8fafc" stroke-width="8" stroke-linecap="round" stroke-linejoin="round"/>
  </g>
</svg>
